# xmcd
#
# Track frame offsets: 
#        150
#        19452
#        30211
#        42039
#        53525
#        63196
#        76135
#        90736
#        104315
#        118847
#        133961
#        149533
#        162281
#        184549
#        200919
#        214468
#        230948
#        260774
#        275951
#        291780
#        305406
#        324345
#        338234
#
# Disc length: 4677 seconds
#
# Revision: 2
# Processed by: cddbd v1.5.2PL0 Copyright (c) Steve Scherf et al.
# Submitted via: ExactAudioCopy v1.1
#
DISCID=62124317
DTITLE=Various Artist - Change Is Gonna Come (The Voice Of Black Amer
DTITLE=ica 1963-1973)
DYEAR=2007
DGENRE=R&B
TTITLE0=Otis Redding - A Change Is Gonna Come
TTITLE1=The Impressions - We're A Winner
TTITLE2=The Staple Singers - When Will We Be Paid
TTITLE3=Lou Gossett, Paul Sindab, Joe Lee Wilson and Little Butter - Blu
TTITLE3=es For Mr Charlie Pt 2
TTITLE4=The Drifters - Only In America
TTITLE5=Patrice Holloway - Stay With Your Own Kind
TTITLE6=Homer Banks - The Ghetto
TTITLE7=Nickie Lee - And Black Is Beautiful
TTITLE8=James Brown - I Don't Want Nobody To Give Me Nothing (Open The
TTITLE8=Door I'll Get It Myself) Pt 1
TTITLE9=The Spinners - Message From A Black Man
TTITLE10=Oscar Brown Jr - Forty Acres And A Mule
TTITLE11=Yaphet Kotto - Have You Ever Seen The Blues
TTITLE12=Parliament - Oh Lord, Why Lord
TTITLE13=The Chi-Lites - We are Neighbors
TTITLE14=Swamp Dogg - I Was Born Blue
TTITLE15=Ray Scott - The Prayer
TTITLE16=George Perkins and The Silver Stars - Cryin' In The Streets Pts
TTITLE16=1 and 2
TTITLE17=Jackie Day - Free At Last
TTITLE18=J.P. Robinson - George Jackson
TTITLE19=The Temptations - Run Charlie Run
TTITLE20=Donny Hathaway - Someday We'll All Be Free
TTITLE21=Gil Scott-Heron - The Revolution Will Not Be Televised
TTITLE22=Nina Simone - To Be Young, Gifted And Black
EXTD=
EXTT0=
EXTT1=
EXTT2=
EXTT3=
EXTT4=
EXTT5=
EXTT6=
EXTT7=
EXTT8=
EXTT9=
EXTT10=
EXTT11=
EXTT12=
EXTT13=
EXTT14=
EXTT15=
EXTT16=
EXTT17=
EXTT18=
EXTT19=
EXTT20=
EXTT21=
EXTT22=
PLAYORDER=
